<?xml version="1.0" encoding="UTF-8" standalone="no"?><svg xmlns="http://www.w3.org/2000/svg" xmlns:xlink="http://www.w3.org/1999/xlink" contentScriptType="application/ecmascript" contentStyleType="text/css" height="732px" preserveAspectRatio="none" style="width:711px;height:732px;" version="1.1" viewBox="0 0 711 732" width="711px" zoomAndPan="magnify"><defs/><g><!--MD5=[a6f11bb19cee6b13000111f5ad685e8b]
cluster Dependencies--><path d="M180.556,23.87 L274.556,23.87 A4.5,4.5 0 0 1 277.556,26.87 L284.556,44.3544 L359.556,44.3544 A3,3 0 0 1 362.556,47.3544 L362.556,256.87 A3,3 0 0 1 359.556,259.87 L180.556,259.87 A3,3 0 0 1 177.556,256.87 L177.556,26.87 A3,3 0 0 1 180.556,23.87 " fill="#FFFFFF" style="stroke: #000000; stroke-width: 1.5;"/><line style="stroke: #000000; stroke-width: 1.5;" x1="177.556" x2="284.556" y1="44.3544" y2="44.3544"/><text fill="#000000" font-family="Tahoma, sans-serif" font-size="12" font-weight="bold" lengthAdjust="spacingAndGlyphs" textLength="94" x="181.556" y="37.8759">Dependencies</text><!--MD5=[ad1e0fa0925579e6b427645758f5154c]
entity clean-webpack-plugin--><rect fill="#F8F8F8" height="34.4844" rx="3" ry="3" style="stroke: #383838; stroke-width: 1.0;" width="145" x="197.556" y="56.87"/><rect fill="#F8F8F8" height="5" style="stroke: #383838; stroke-width: 1.0;" width="10" x="192.556" y="61.87"/><rect fill="#F8F8F8" height="5" style="stroke: #383838; stroke-width: 1.0;" width="10" x="192.556" y="81.3544"/><text fill="#000000" font-family="Tahoma, sans-serif" font-size="12" lengthAdjust="spacingAndGlyphs" textLength="125" x="207.556" y="78.8759">clean-webpack-plugin</text><!--MD5=[e6ca2fd0422e6124984a5b20074bd1b5]
entity copy-webpack-plugin--><rect fill="#F8F8F8" height="34.4844" rx="3" ry="3" style="stroke: #383838; stroke-width: 1.0;" width="142" x="199.056" y="107.87"/><rect fill="#F8F8F8" height="5" style="stroke: #383838; stroke-width: 1.0;" width="10" x="194.056" y="112.87"/><rect fill="#F8F8F8" height="5" style="stroke: #383838; stroke-width: 1.0;" width="10" x="194.056" y="132.3544"/><text fill="#000000" font-family="Tahoma, sans-serif" font-size="12" lengthAdjust="spacingAndGlyphs" textLength="122" x="209.056" y="129.8759">copy-webpack-plugin</text><!--MD5=[6f4bd952f35718eedacdcb5a5d3e4e2c]
entity html-webpack-plugin--><rect fill="#F8F8F8" height="34.4844" rx="3" ry="3" style="stroke: #383838; stroke-width: 1.0;" width="139" x="200.556" y="158.87"/><rect fill="#F8F8F8" height="5" style="stroke: #383838; stroke-width: 1.0;" width="10" x="195.556" y="163.87"/><rect fill="#F8F8F8" height="5" style="stroke: #383838; stroke-width: 1.0;" width="10" x="195.556" y="183.3544"/><text fill="#000000" font-family="Tahoma, sans-serif" font-size="12" lengthAdjust="spacingAndGlyphs" textLength="119" x="210.556" y="180.8759">html-webpack-plugin</text><!--MD5=[fe1e37361c20161bb802583e5b2a7b71]
entity mini-css-extract-plugin--><rect fill="#F8F8F8" height="34.4844" rx="3" ry="3" style="stroke: #383838; stroke-width: 1.0;" width="153" x="193.556" y="209.87"/><rect fill="#F8F8F8" height="5" style="stroke: #383838; stroke-width: 1.0;" width="10" x="188.556" y="214.87"/><rect fill="#F8F8F8" height="5" style="stroke: #383838; stroke-width: 1.0;" width="10" x="188.556" y="234.3544"/><text fill="#000000" font-family="Tahoma, sans-serif" font-size="12" lengthAdjust="spacingAndGlyphs" textLength="133" x="203.556" y="231.8759">mini-css-extract-plugin</text><ellipse cx="582.9616" cy="544.112" fill="#F8F8F8" rx="33.4056" ry="13.242" style="stroke: #383838; stroke-width: 0.5;"/><text fill="#000000" font-family="Tahoma, sans-serif" font-size="12" lengthAdjust="spacingAndGlyphs" textLength="43" x="561.4616" y="547.8542">actions</text><ellipse cx="93.775" cy="293.0137" fill="#F8F8F8" rx="56.2187" ry="13.6437" style="stroke: #383838; stroke-width: 0.5;"/><text fill="#000000" font-family="Tahoma, sans-serif" font-size="12" font-weight="bold" lengthAdjust="spacingAndGlyphs" textLength="78" x="54.775" y="296.7559">createStore</text><ellipse cx="93.5624" cy="337.112" fill="#F8F8F8" rx="23.5061" ry="13.242" style="stroke: #383838; stroke-width: 0.5;"/><text fill="#000000" font-family="Tahoma, sans-serif" font-size="12" font-weight="bold" lengthAdjust="spacingAndGlyphs" textLength="29" x="79.0624" y="340.8542">dom</text><!--MD5=[24e39858f98916e8c8821da0cb31e2d2]
entity _DOMListener--><rect fill="#F8F8F8" height="34.4844" rx="3" ry="3" style="stroke: #000000; stroke-width: 0.5;" width="104" x="41.5563" y="366.87"/><text fill="#000000" font-family="Tahoma, sans-serif" font-size="12" font-weight="bold" lengthAdjust="spacingAndGlyphs" textLength="84" x="51.5563" y="388.8759">DOMListener</text><ellipse cx="270.2692" cy="426.112" fill="#F8F8F8" rx="24.2132" ry="13.242" style="stroke: #383838; stroke-width: 0.5;"/><text fill="#000000" font-family="Tahoma, sans-serif" font-size="12" lengthAdjust="spacingAndGlyphs" textLength="30" x="255.2692" y="429.8542">Excel</text><ellipse cx="269.8243" cy="292.6237" fill="#F8F8F8" rx="69.2683" ry="16.2537" style="stroke: #383838; stroke-width: 0.5;"/><text fill="#000000" font-family="Tahoma, sans-serif" font-size="12" font-weight="bold" lengthAdjust="spacingAndGlyphs" textLength="111" x="214.3243" y="296.3658">ExcelComponent</text><ellipse cx="270.0829" cy="469.112" fill="#F8F8F8" rx="35.5269" ry="13.242" style="stroke: #383838; stroke-width: 0.5;"/><text fill="#000000" font-family="Tahoma, sans-serif" font-size="12" lengthAdjust="spacingAndGlyphs" textLength="46" x="247.0829" y="472.8542">Formula</text><!--MD5=[f9d3dab21c4380625a4a5453aa0f93a2]
entity _Header--><rect fill="#F8F8F8" height="34.4844" rx="3" ry="3" style="stroke: #000000; stroke-width: 0.5;" width="60" x="240.056" y="498.87"/><text fill="#000000" font-family="Tahoma, sans-serif" font-size="12" lengthAdjust="spacingAndGlyphs" textLength="40" x="250.056" y="520.8759">Header</text><ellipse cx="93.4827" cy="625.1118" fill="#F8F8F8" rx="45.4264" ry="13.242" style="stroke: #383838; stroke-width: 0.5;"/><text fill="#000000" font-family="Tahoma, sans-serif" font-size="12" lengthAdjust="spacingAndGlyphs" textLength="60" x="63.4827" y="628.854">initialState</text><ellipse cx="270.0474" cy="340.112" fill="#F8F8F8" rx="31.9914" ry="13.242" style="stroke: #383838; stroke-width: 0.5;"/><text fill="#000000" font-family="Tahoma, sans-serif" font-size="12" font-weight="bold" lengthAdjust="spacingAndGlyphs" textLength="41" x="249.5474" y="343.8542">modul</text><ellipse cx="269.9824" cy="383.112" fill="#F8F8F8" rx="45.4264" ry="13.242" style="stroke: #383838; stroke-width: 0.5;"/><text fill="#000000" font-family="Tahoma, sans-serif" font-size="12" font-weight="bold" lengthAdjust="spacingAndGlyphs" textLength="60" x="239.9824" y="386.8542">Observer</text><ellipse cx="447.8758" cy="496.112" fill="#F8F8F8" rx="34.8198" ry="13.242" style="stroke: #383838; stroke-width: 0.5;"/><text fill="#000000" font-family="Tahoma, sans-serif" font-size="12" lengthAdjust="spacingAndGlyphs" textLength="45" x="425.3758" y="499.8542">resizing</text><ellipse cx="93.5538" cy="582.112" fill="#F8F8F8" rx="52.4975" ry="13.242" style="stroke: #383838; stroke-width: 0.5;"/><text fill="#000000" font-family="Tahoma, sans-serif" font-size="12" lengthAdjust="spacingAndGlyphs" textLength="70" x="58.5538" y="585.8542">rootReducer</text><ellipse cx="93.4055" cy="539.112" fill="#F8F8F8" rx="17.8492" ry="13.242" style="stroke: #383838; stroke-width: 0.5;"/><text fill="#000000" font-family="Tahoma, sans-serif" font-size="12" font-weight="bold" lengthAdjust="spacingAndGlyphs" textLength="21" x="82.9055" y="542.8542">src</text><ellipse cx="448.1585" cy="292.7905" fill="#F8F8F8" rx="67.6025" ry="15.9205" style="stroke: #383838; stroke-width: 0.5;"/><text fill="#000000" font-family="Tahoma, sans-serif" font-size="12" font-weight="bold" lengthAdjust="spacingAndGlyphs" textLength="107" x="394.6585" y="296.5327">StoreSubscriber</text><ellipse cx="269.9763" cy="563.112" fill="#F8F8F8" rx="24.9203" ry="13.242" style="stroke: #383838; stroke-width: 0.5;"/><text fill="#000000" font-family="Tahoma, sans-serif" font-size="12" lengthAdjust="spacingAndGlyphs" textLength="31" x="254.4763" y="566.8542">Table</text><ellipse cx="447.8904" cy="540.0369" fill="#F8F8F8" rx="58.8344" ry="14.1669" style="stroke: #383838; stroke-width: 0.5;"/><text fill="#000000" font-family="Tahoma, sans-serif" font-size="12" lengthAdjust="spacingAndGlyphs" textLength="85" x="405.3904" y="543.7791">table.functions</text><ellipse cx="447.8835" cy="584.7353" fill="#F8F8F8" rx="57.3275" ry="13.8655" style="stroke: #383838; stroke-width: 0.5;"/><text fill="#000000" font-family="Tahoma, sans-serif" font-size="12" lengthAdjust="spacingAndGlyphs" textLength="81" x="407.3835" y="588.4775">table.template</text><ellipse cx="447.8904" cy="630.0367" fill="#F8F8F8" rx="58.8344" ry="14.1669" style="stroke: #383838; stroke-width: 0.5;"/><text fill="#000000" font-family="Tahoma, sans-serif" font-size="12" lengthAdjust="spacingAndGlyphs" textLength="85" x="405.3904" y="633.7789">TableSelection</text><ellipse cx="269.8758" cy="606.1118" fill="#F8F8F8" rx="34.8198" ry="13.242" style="stroke: #383838; stroke-width: 0.5;"/><text fill="#000000" font-family="Tahoma, sans-serif" font-size="12" lengthAdjust="spacingAndGlyphs" textLength="45" x="247.3758" y="609.854">ToolBar</text><ellipse cx="675.4763" cy="607.1118" fill="#F8F8F8" rx="24.9203" ry="13.242" style="stroke: #383838; stroke-width: 0.5;"/><text fill="#000000" font-family="Tahoma, sans-serif" font-size="12" lengthAdjust="spacingAndGlyphs" textLength="31" x="659.9763" y="610.854">types</text><ellipse cx="448.0621" cy="339.112" fill="#F8F8F8" rx="23.5061" ry="13.242" style="stroke: #383838; stroke-width: 0.5;"/><text fill="#000000" font-family="Tahoma, sans-serif" font-size="12" font-weight="bold" lengthAdjust="spacingAndGlyphs" textLength="29" x="433.5621" y="342.8542">utils</text><ellipse cx="93.5125" cy="150.9612" fill="#F8F8F8" rx="65.9562" ry="15.5912" style="stroke: #383838; stroke-width: 0.5;"/><text fill="#000000" font-family="Tahoma, sans-serif" font-size="12" font-weight="bold" lengthAdjust="spacingAndGlyphs" textLength="103" x="42.0125" y="154.7034">webpack.config</text><!--MD5=[69368988b291678c7b369865108475bb]
link actions to types--><path d="M600.236,555.133 C615.665,565.873 638.913,582.057 655.291,593.4589 " fill="none" id="actions-&gt;types" style="stroke: #000000; stroke-width: 0.5;"/><polygon fill="#000000" points="659.717,596.5393,654.6165,588.114,655.6136,593.6823,650.0454,594.6794,659.717,596.5393" style="stroke: #000000; stroke-width: 0.5;"/><!--MD5=[dea7fd9873eafa355d382691e642850f]
link rootReducer to types--><path d="M135.28,589.7886 C144.077,593.0078 152.765,597.5276 159.556,603.8698 C168.002,611.7565 160.336,620.9044 169.556,627.8698 C292.578,720.8042 362.904,674.5079 515.556,652.8698 C564.439,645.9408 619.324,627.5933 650.138,616.2748 " fill="none" id="rootReducer-&gt;types" style="stroke: #000000; stroke-width: 0.5;"/><polygon fill="#000000" points="654.872,614.5214,645.0429,613.8973,650.1834,616.2585,647.8223,621.399,654.872,614.5214" style="stroke: #000000; stroke-width: 0.5;"/><!--MD5=[d6922e76a3ac01890a04477a15f8a1ee]
link <b>src</b> to Excel--><path d="M100.8496,526.959 C111.939,507.205 136.909,467.866 169.556,447.87 C191.114,434.666 219.605,429.348 240.574,427.226 " fill="none" id="&lt;b&gt;src&lt;/b&gt;-&gt;Excel" style="stroke: #000000; stroke-width: 1.0;"/><polygon fill="#000000" points="245.734,426.753,236.406,423.5927,240.7549,427.2102,237.1375,431.5592,245.734,426.753" style="stroke: #000000; stroke-width: 1.0;"/><!--MD5=[50d12ff730e70b6a0d62e0b79ffbe45c]
link <b>src</b> to Formula--><path d="M106.547,529.283 C120.766,518.387 145.569,500.827 169.556,490.87 C189.122,482.748 212.153,477.411 231.127,474.03 " fill="none" id="&lt;b&gt;src&lt;/b&gt;-&gt;Formula" style="stroke: #000000; stroke-width: 1.0;"/><polygon fill="#000000" points="236.365,473.128,226.8167,470.7136,231.4375,473.9766,228.1745,478.5975,236.365,473.128" style="stroke: #000000; stroke-width: 1.0;"/><!--MD5=[227bdbdf193d7efbda047ff1ee7d8326]
link <b>src</b> to _Header--><path d="M111.606,536.623 C139.969,532.884 197.389,525.316 234.491,520.426 " fill="none" id="&lt;b&gt;src&lt;/b&gt;-&gt;_Header" style="stroke: #000000; stroke-width: 1.0;"/><polygon fill="#000000" points="239.811,519.724,230.365,516.9361,234.854,520.3783,231.4118,524.8673,239.811,519.724" style="stroke: #000000; stroke-width: 1.0;"/><!--MD5=[ec225ae6d393e7a50504d398fdbc1cee]
link <b>src</b> to initialState--><path d="M75.3234,539.458 C55.2489,541.227 24.0348,547.561 10.5563,569.37 C4.4812,579.2 4.4812,585.54 10.5563,595.3698 C18.1465,607.6509 31.4261,614.886 45.1667,619.1265 " fill="none" id="&lt;b&gt;src&lt;/b&gt;-&gt;initialState" style="stroke: #000000; stroke-width: 1.0;"/><polygon fill="#000000" points="50.2402,620.5571,42.6636,614.2647,45.4279,619.2001,40.4924,621.9644,50.2402,620.5571" style="stroke: #000000; stroke-width: 1.0;"/><!--MD5=[cfa385694bb39464cd2b8bed45bd6c75]
link <b>src</b> to rootReducer--><path d="M93.5563,551.95 C93.5563,555.804 93.5563,559.659 93.5563,563.513 " fill="none" id="&lt;b&gt;src&lt;/b&gt;-&gt;rootReducer" style="stroke: #000000; stroke-width: 1.0;"/><polygon fill="#000000" points="93.5563,568.768,97.5563,559.768,93.5563,563.768,89.5563,559.768,93.5563,568.768" style="stroke: #000000; stroke-width: 1.0;"/><!--MD5=[93a0dc9ce1478d3f1830f5881d3aa857]
link <b>src</b> to Table--><path d="M111.288,541.171 C141.127,545.275 203.834,553.899 240.571,558.952 " fill="none" id="&lt;b&gt;src&lt;/b&gt;-&gt;Table" style="stroke: #000000; stroke-width: 1.0;"/><polygon fill="#000000" points="245.795,559.671,237.4242,554.4816,240.8417,558.9895,236.3338,562.407,245.795,559.671" style="stroke: #000000; stroke-width: 1.0;"/><!--MD5=[6e0336f858ffe79dbdd8f7e9ab5459db]
link <b>src</b> to ToolBar--><path d="M111.47,540.693 C125.888,543.072 146.321,548.511 159.556,560.87 C168.002,568.756 160.659,577.496 169.556,584.8698 C186.223,598.682 209.749,604.0808 229.741,605.9569 " fill="none" id="&lt;b&gt;src&lt;/b&gt;-&gt;ToolBar" style="stroke: #000000; stroke-width: 1.0;"/><polygon fill="#000000" points="234.741,606.361,226.0925,601.6489,229.7573,605.9581,225.448,609.6228,234.741,606.361" style="stroke: #000000; stroke-width: 1.0;"/><!--MD5=[25988f3a38c5e471e0980dca5effa848]
link Table to actions--><path d="M294.797,564.911 C317.588,565.456 351.31,562.304 370.556,541.87 C391.199,519.953 357.75,494.525 380.556,474.87 C426.006,435.7 460.338,451.398 515.556,474.87 C540.188,485.34 560.123,509.9 571.537,526.706 " fill="none" id="Table-&gt;actions" style="stroke: #000000; stroke-width: 0.5;"/><polygon fill="#000000" points="574.528,531.222,572.8962,521.5093,571.7684,527.0525,566.2251,525.9247,574.528,531.222" style="stroke: #000000; stroke-width: 0.5;"/><!--MD5=[4644145b4dcafc846e3988e770465d37]
link Table to resizing--><path d="M295.035,563.805 C317.041,563.397 349.35,559.444 370.556,541.87 C379.454,534.496 372.084,525.727 380.556,517.87 C388.83,510.197 399.842,505.196 410.521,501.938 " fill="none" id="Table-&gt;resizing" style="stroke: #000000; stroke-width: 0.5;"/><polygon fill="#000000" points="415.393,500.561,405.6439,499.1625,410.5819,501.9223,407.8221,506.8603,415.393,500.561" style="stroke: #000000; stroke-width: 0.5;"/><!--MD5=[ccbd4ebd7a3e791f7fd6cb1a93aec28e]
link Table to table.functions--><path d="M294.428,559.816 C318.925,556.614 358.314,551.467 390.942,547.203 " fill="none" id="Table-&gt;table.functions" style="stroke: #000000; stroke-width: 0.5;"/><polygon fill="#000000" points="396.117,546.527,386.6742,543.728,391.1592,547.1755,387.7118,551.6605,396.117,546.527" style="stroke: #000000; stroke-width: 0.5;"/><!--MD5=[19cd55a7355169a817a9c6f366839b4a]
link Table to table.template--><path d="M294.428,565.791 C319.014,568.864 358.6,573.813 391.296,577.9 " fill="none" id="Table-&gt;table.template" style="stroke: #000000; stroke-width: 0.5;"/><polygon fill="#000000" points="396.481,578.548,388.0479,573.4605,391.5198,577.9266,387.0537,581.3985,396.481,578.548" style="stroke: #000000; stroke-width: 0.5;"/><!--MD5=[c2105247f975d958cecb80abfd791e67]
link Table to TableSelection--><path d="M295.416,562.299 C317.381,563.046 349.392,567.433 370.556,584.8698 C379.159,591.9576 372.326,600.3531 380.556,607.8698 C385.494,612.3787 391.378,615.9657 397.574,618.8187 " fill="none" id="Table-&gt;TableSelection" style="stroke: #000000; stroke-width: 0.5;"/><polygon fill="#000000" points="402.363,620.8605,395.6534,613.6507,397.7638,618.8991,392.5153,621.0095,402.363,620.8605" style="stroke: #000000; stroke-width: 0.5;"/><!--MD5=[6a38cdf625b775b0dae1e4121938e35c]
link <b>webpack.config</b> to clean-webpack-plugin--><path d="M112.234,135.853 C126.767,124.215 148.349,108.499 169.556,98.87 C176.809,95.577 184.564,92.672 192.424,90.119 " fill="none" id="&lt;b&gt;webpack.config&lt;/b&gt;-&gt;clean-webpack-plugin" style="stroke: #000000; stroke-width: 1.0;"/><polygon fill="#000000" points="197.328,88.575,187.5423,87.4617,192.5587,90.0762,189.9442,95.0926,197.328,88.575" style="stroke: #000000; stroke-width: 1.0;"/><!--MD5=[21017ee04eb4ebfc7ac3dfaaf563e8d3]
link <b>webpack.config</b> to copy-webpack-plugin--><path d="M149.769,142.643 C163.764,140.558 179.035,138.283 193.836,136.077 " fill="none" id="&lt;b&gt;webpack.config&lt;/b&gt;-&gt;copy-webpack-plugin" style="stroke: #000000; stroke-width: 1.0;"/><polygon fill="#000000" points="198.835,135.333,189.3435,132.7039,193.8897,136.0703,190.5232,140.6164,198.835,135.333" style="stroke: #000000; stroke-width: 1.0;"/><!--MD5=[c0bba77861e9da2ff8d90ab4002b0c13]
link <b>webpack.config</b> to html-webpack-plugin--><path d="M150.249,158.849 C164.587,160.903 180.239,163.145 195.337,165.308 " fill="none" id="&lt;b&gt;webpack.config&lt;/b&gt;-&gt;html-webpack-plugin" style="stroke: #000000; stroke-width: 1.0;"/><polygon fill="#000000" points="200.434,166.038,192.0916,160.8031,195.4845,165.3295,190.958,168.7223,200.434,166.038" style="stroke: #000000; stroke-width: 1.0;"/><!--MD5=[1e170f36608f9a28b877c1365f648a6e]
link <b>webpack.config</b> to mini-css-extract-plugin--><path d="M113.256,165.909 C127.836,176.977 148.997,191.644 169.556,200.87 C175.592,203.578 181.966,206.047 188.452,208.29 " fill="none" id="&lt;b&gt;webpack.config&lt;/b&gt;-&gt;mini-css-extract-plugin" style="stroke: #000000; stroke-width: 1.0;"/><polygon fill="#000000" points="193.431,209.961,186.1704,203.3064,188.6906,208.3709,183.6262,210.8911,193.431,209.961" style="stroke: #000000; stroke-width: 1.0;"/><!--MD5=[95e2b5096f6e1887a20b177430e4daef]
link <b>createStore</b> to <b>dom</b>--><!--MD5=[ff60605a0ea56c524dea8b3e71aca294]
link <b>dom</b> to _DOMListener--><!--MD5=[185c9a028e1b885121f7e4f417baebc1]
link <b>createStore</b> to <b>ExcelComponent</b>--><!--MD5=[b841609c6938b316c794daf57692a6c8]
link <b>ExcelComponent</b> to <b>modul</b>--><!--MD5=[8fb711610f81b66048b57c3ce35e6186]
link <b>modul</b> to <b>Observer</b>--><!--MD5=[9b80a6aba3512e291ed427bd9686479b]
link <b>ExcelComponent</b> to <b>StoreSubscriber</b>--><!--MD5=[a277f3a2e94494fa113afed3c205d6db]
link <b>StoreSubscriber</b> to <b>utils</b>--><script type="text/plantuml"><![CDATA[MD5=[262025d24339633500b7d8a21c1509a2]
@startuml

scale max 1920 width
left to right direction

skinparam nodesep 17
skinparam ranksep 34
skinparam monochrome true
skinparam shadowing false
skinparam defaultFontName Tahoma
skinparam defaultFontSize 12
skinparam roundCorner 6
skinparam dpi 150
skinparam arrowColor black
skinparam arrowThickness 0.5
skinparam packageTitleAlignment left

skinparam usecase {
  borderThickness 0.5
}

skinparam rectangle {
  borderThickness 0.5
}

skinparam component {
  borderThickness 1
}


(actions)
(<b>createStore</b>)
(<b>dom</b>)
rectangle "<b>DOMListener</b>" as _DOMListener
(Excel)
(<b>ExcelComponent</b>)
(Formula)
rectangle "Header" as _Header
(initialState)
(<b>modul</b>)
(<b>Observer</b>)
(resizing)
(rootReducer)
(<b>src</b>)
(<b>StoreSubscriber</b>)
(Table)
(table.functions)
(table.template)
(TableSelection)
(ToolBar)
(types)
(<b>utils</b>)
(<b>webpack.config</b>)

package "Dependencies" {
  [clean-webpack-plugin]
  [copy-webpack-plugin]
  [html-webpack-plugin]
  [mini-css-extract-plugin]
}

(actions) --> (types)
(rootReducer) --> (types)
(<b>src</b>) --[thickness=1]> (Excel)
(<b>src</b>) --[thickness=1]> (Formula)
(<b>src</b>) --[thickness=1]> _Header
(<b>src</b>) -[thickness=1]> (initialState)
(<b>src</b>) -[thickness=1]> (rootReducer)
(<b>src</b>) --[thickness=1]> (Table)
(<b>src</b>) --[thickness=1]> (ToolBar)
(Table) ---> (actions)
(Table) --> (resizing)
(Table) --> (table.functions)
(Table) --> (table.template)
(Table) --> (TableSelection)
(<b>webpack.config</b>) --[thickness=1]> [clean-webpack-plugin]
(<b>webpack.config</b>) --[thickness=1]> [copy-webpack-plugin]
(<b>webpack.config</b>) --[thickness=1]> [html-webpack-plugin]
(<b>webpack.config</b>) --[thickness=1]> [mini-css-extract-plugin]

@enduml


' View and edit on https://arkit.pro
]]></script></g></svg>