<?xml version="1.0" encoding="UTF-8" standalone="no"?><svg xmlns="http://www.w3.org/2000/svg" xmlns:xlink="http://www.w3.org/1999/xlink" contentScriptType="application/ecmascript" contentStyleType="text/css" height="772px" preserveAspectRatio="none" style="width:795px;height:772px;" version="1.1" viewBox="0 0 795 772" width="795px" zoomAndPan="magnify"><defs/><g><!--MD5=[a6f11bb19cee6b13000111f5ad685e8b]
cluster Dependencies--><path d="M190.014,23.588 L284.014,23.588 A4.5,4.5 0 0 1 287.014,26.588 L294.014,44.0724 L369.014,44.0724 A3,3 0 0 1 372.014,47.0724 L372.014,259.588 A3,3 0 0 1 369.014,262.588 L190.014,262.588 A3,3 0 0 1 187.014,259.588 L187.014,26.588 A3,3 0 0 1 190.014,23.588 " fill="#FFFFFF" style="stroke: #000000; stroke-width: 1.5;"/><line style="stroke: #000000; stroke-width: 1.5;" x1="187.014" x2="294.014" y1="44.0724" y2="44.0724"/><text fill="#000000" font-family="Tahoma, sans-serif" font-size="12" font-weight="bold" lengthAdjust="spacingAndGlyphs" textLength="94" x="191.014" y="37.5939">Dependencies</text><!--MD5=[ad1e0fa0925579e6b427645758f5154c]
entity clean-webpack-plugin--><rect fill="#F8F8F8" height="34.4844" rx="3" ry="3" style="stroke: #383838; stroke-width: 1.0;" width="145" x="207.014" y="56.588"/><rect fill="#F8F8F8" height="5" style="stroke: #383838; stroke-width: 1.0;" width="10" x="202.014" y="61.588"/><rect fill="#F8F8F8" height="5" style="stroke: #383838; stroke-width: 1.0;" width="10" x="202.014" y="81.0724"/><text fill="#000000" font-family="Tahoma, sans-serif" font-size="12" lengthAdjust="spacingAndGlyphs" textLength="125" x="217.014" y="78.5939">clean-webpack-plugin</text><!--MD5=[e6ca2fd0422e6124984a5b20074bd1b5]
entity copy-webpack-plugin--><rect fill="#F8F8F8" height="34.4844" rx="3" ry="3" style="stroke: #383838; stroke-width: 1.0;" width="142" x="208.514" y="108.588"/><rect fill="#F8F8F8" height="5" style="stroke: #383838; stroke-width: 1.0;" width="10" x="203.514" y="113.588"/><rect fill="#F8F8F8" height="5" style="stroke: #383838; stroke-width: 1.0;" width="10" x="203.514" y="133.0724"/><text fill="#000000" font-family="Tahoma, sans-serif" font-size="12" lengthAdjust="spacingAndGlyphs" textLength="122" x="218.514" y="130.5939">copy-webpack-plugin</text><!--MD5=[6f4bd952f35718eedacdcb5a5d3e4e2c]
entity html-webpack-plugin--><rect fill="#F8F8F8" height="34.4844" rx="3" ry="3" style="stroke: #383838; stroke-width: 1.0;" width="139" x="210.014" y="160.588"/><rect fill="#F8F8F8" height="5" style="stroke: #383838; stroke-width: 1.0;" width="10" x="205.014" y="165.588"/><rect fill="#F8F8F8" height="5" style="stroke: #383838; stroke-width: 1.0;" width="10" x="205.014" y="185.0724"/><text fill="#000000" font-family="Tahoma, sans-serif" font-size="12" lengthAdjust="spacingAndGlyphs" textLength="119" x="220.014" y="182.5939">html-webpack-plugin</text><!--MD5=[fe1e37361c20161bb802583e5b2a7b71]
entity mini-css-extract-plugin--><rect fill="#F8F8F8" height="34.4844" rx="3" ry="3" style="stroke: #383838; stroke-width: 1.0;" width="153" x="203.014" y="212.588"/><rect fill="#F8F8F8" height="5" style="stroke: #383838; stroke-width: 1.0;" width="10" x="198.014" y="217.588"/><rect fill="#F8F8F8" height="5" style="stroke: #383838; stroke-width: 1.0;" width="10" x="198.014" y="237.0724"/><text fill="#000000" font-family="Tahoma, sans-serif" font-size="12" lengthAdjust="spacingAndGlyphs" textLength="133" x="213.014" y="234.5939">mini-css-extract-plugin</text><ellipse cx="634.4196" cy="542.83" fill="#F8F8F8" rx="33.4056" ry="13.242" style="stroke: #383838; stroke-width: 0.5;"/><text fill="#000000" font-family="Tahoma, sans-serif" font-size="12" lengthAdjust="spacingAndGlyphs" textLength="43" x="612.9196" y="546.5722">actions</text><ellipse cx="94.2331" cy="295.7317" fill="#F8F8F8" rx="56.2187" ry="13.6437" style="stroke: #383838; stroke-width: 0.5;"/><text fill="#000000" font-family="Tahoma, sans-serif" font-size="12" font-weight="bold" lengthAdjust="spacingAndGlyphs" textLength="78" x="55.2331" y="299.4739">createStore</text><ellipse cx="94.0205" cy="340.83" fill="#F8F8F8" rx="23.5061" ry="13.242" style="stroke: #383838; stroke-width: 0.5;"/><text fill="#000000" font-family="Tahoma, sans-serif" font-size="12" font-weight="bold" lengthAdjust="spacingAndGlyphs" textLength="29" x="79.5205" y="344.5722">dom</text><!--MD5=[24e39858f98916e8c8821da0cb31e2d2]
entity _DOMListener--><rect fill="#F8F8F8" height="34.4844" rx="3" ry="3" style="stroke: #000000; stroke-width: 0.5;" width="104" x="42.0144" y="371.588"/><text fill="#000000" font-family="Tahoma, sans-serif" font-size="12" font-weight="bold" lengthAdjust="spacingAndGlyphs" textLength="84" x="52.0144" y="393.5939">DOMListener</text><ellipse cx="279.7272" cy="444.83" fill="#F8F8F8" rx="24.2132" ry="13.242" style="stroke: #383838; stroke-width: 0.5;"/><text fill="#000000" font-family="Tahoma, sans-serif" font-size="12" lengthAdjust="spacingAndGlyphs" textLength="30" x="264.7272" y="448.5722">Excel</text><ellipse cx="279.2823" cy="295.3417" fill="#F8F8F8" rx="69.2683" ry="16.2537" style="stroke: #383838; stroke-width: 0.5;"/><text fill="#000000" font-family="Tahoma, sans-serif" font-size="12" font-weight="bold" lengthAdjust="spacingAndGlyphs" textLength="111" x="223.7823" y="299.0838">ExcelComponent</text><ellipse cx="279.5016" cy="349.3855" fill="#F8F8F8" rx="84.4876" ry="19.2975" style="stroke: #383838; stroke-width: 0.5;"/><text fill="#000000" font-family="Tahoma, sans-serif" font-size="12" font-weight="bold" lengthAdjust="spacingAndGlyphs" textLength="146" x="206.5016" y="353.1277">ExcelStateComponent</text><ellipse cx="279.5409" cy="488.83" fill="#F8F8F8" rx="35.5269" ry="13.242" style="stroke: #383838; stroke-width: 0.5;"/><text fill="#000000" font-family="Tahoma, sans-serif" font-size="12" lengthAdjust="spacingAndGlyphs" textLength="46" x="256.5409" y="492.5722">Formula</text><!--MD5=[f9d3dab21c4380625a4a5453aa0f93a2]
entity _Header--><rect fill="#F8F8F8" height="34.4844" rx="3" ry="3" style="stroke: #000000; stroke-width: 0.5;" width="60" x="249.514" y="519.588"/><text fill="#000000" font-family="Tahoma, sans-serif" font-size="12" lengthAdjust="spacingAndGlyphs" textLength="40" x="259.514" y="541.5939">Header</text><ellipse cx="93.9408" cy="648.8303" fill="#F8F8F8" rx="45.4264" ry="13.242" style="stroke: #383838; stroke-width: 0.5;"/><text fill="#000000" font-family="Tahoma, sans-serif" font-size="12" lengthAdjust="spacingAndGlyphs" textLength="60" x="63.9408" y="652.5725">initialState</text><ellipse cx="279.5054" cy="400.83" fill="#F8F8F8" rx="31.9914" ry="13.242" style="stroke: #383838; stroke-width: 0.5;"/><text fill="#000000" font-family="Tahoma, sans-serif" font-size="12" font-weight="bold" lengthAdjust="spacingAndGlyphs" textLength="41" x="259.0054" y="404.5722">modul</text><ellipse cx="466.4404" cy="295.83" fill="#F8F8F8" rx="45.4264" ry="13.242" style="stroke: #383838; stroke-width: 0.5;"/><text fill="#000000" font-family="Tahoma, sans-serif" font-size="12" font-weight="bold" lengthAdjust="spacingAndGlyphs" textLength="60" x="436.4404" y="299.5722">Observer</text><ellipse cx="466.3338" cy="493.83" fill="#F8F8F8" rx="34.8198" ry="13.242" style="stroke: #383838; stroke-width: 0.5;"/><text fill="#000000" font-family="Tahoma, sans-serif" font-size="12" lengthAdjust="spacingAndGlyphs" textLength="45" x="443.8338" y="497.5722">resizing</text><ellipse cx="94.0119" cy="604.83" fill="#F8F8F8" rx="52.4975" ry="13.242" style="stroke: #383838; stroke-width: 0.5;"/><text fill="#000000" font-family="Tahoma, sans-serif" font-size="12" lengthAdjust="spacingAndGlyphs" textLength="70" x="59.0119" y="608.5722">rootReducer</text><ellipse cx="93.8636" cy="560.83" fill="#F8F8F8" rx="17.8492" ry="13.242" style="stroke: #383838; stroke-width: 0.5;"/><text fill="#000000" font-family="Tahoma, sans-serif" font-size="12" font-weight="bold" lengthAdjust="spacingAndGlyphs" textLength="21" x="83.3636" y="564.5722">src</text><ellipse cx="466.6165" cy="342.5085" fill="#F8F8F8" rx="67.6025" ry="15.9205" style="stroke: #383838; stroke-width: 0.5;"/><text fill="#000000" font-family="Tahoma, sans-serif" font-size="12" font-weight="bold" lengthAdjust="spacingAndGlyphs" textLength="107" x="413.1165" y="346.2507">StoreSubscriber</text><ellipse cx="279.4343" cy="584.83" fill="#F8F8F8" rx="24.9203" ry="13.242" style="stroke: #383838; stroke-width: 0.5;"/><text fill="#000000" font-family="Tahoma, sans-serif" font-size="12" lengthAdjust="spacingAndGlyphs" textLength="31" x="263.9343" y="588.5722">Table</text><ellipse cx="466.3484" cy="538.7549" fill="#F8F8F8" rx="58.8344" ry="14.1669" style="stroke: #383838; stroke-width: 0.5;"/><text fill="#000000" font-family="Tahoma, sans-serif" font-size="12" lengthAdjust="spacingAndGlyphs" textLength="85" x="423.8484" y="542.4971">table.functions</text><ellipse cx="466.3415" cy="584.4535" fill="#F8F8F8" rx="57.3275" ry="13.8655" style="stroke: #383838; stroke-width: 0.5;"/><text fill="#000000" font-family="Tahoma, sans-serif" font-size="12" lengthAdjust="spacingAndGlyphs" textLength="81" x="425.8415" y="588.1957">table.template</text><ellipse cx="466.3484" cy="630.7549" fill="#F8F8F8" rx="58.8344" ry="14.1669" style="stroke: #383838; stroke-width: 0.5;"/><text fill="#000000" font-family="Tahoma, sans-serif" font-size="12" lengthAdjust="spacingAndGlyphs" textLength="85" x="423.8484" y="634.4971">TableSelection</text><ellipse cx="279.3338" cy="653.8303" fill="#F8F8F8" rx="34.8198" ry="13.242" style="stroke: #383838; stroke-width: 0.5;"/><text fill="#000000" font-family="Tahoma, sans-serif" font-size="12" lengthAdjust="spacingAndGlyphs" textLength="45" x="256.8338" y="657.5725">ToolBar</text><ellipse cx="634.5618" cy="678.5979" fill="#F8F8F8" rx="65.5478" ry="15.5096" style="stroke: #383838; stroke-width: 0.5;"/><text fill="#000000" font-family="Tahoma, sans-serif" font-size="12" lengthAdjust="spacingAndGlyphs" textLength="102" x="583.5618" y="682.3401">toolbar.constants</text><ellipse cx="466.6548" cy="678.5165" fill="#F8F8F8" rx="65.1408" ry="15.4282" style="stroke: #383838; stroke-width: 0.5;"/><text fill="#000000" font-family="Tahoma, sans-serif" font-size="12" lengthAdjust="spacingAndGlyphs" textLength="101" x="416.1548" y="682.2587">toolbar.templates</text><ellipse cx="759.9343" cy="632.8303" fill="#F8F8F8" rx="24.9203" ry="13.242" style="stroke: #383838; stroke-width: 0.5;"/><text fill="#000000" font-family="Tahoma, sans-serif" font-size="12" lengthAdjust="spacingAndGlyphs" textLength="31" x="744.4343" y="636.5725">types</text><ellipse cx="466.5201" cy="389.83" fill="#F8F8F8" rx="23.5061" ry="13.242" style="stroke: #383838; stroke-width: 0.5;"/><text fill="#000000" font-family="Tahoma, sans-serif" font-size="12" font-weight="bold" lengthAdjust="spacingAndGlyphs" textLength="29" x="452.0201" y="393.5722">utils</text><ellipse cx="93.9706" cy="151.6792" fill="#F8F8F8" rx="65.9562" ry="15.5912" style="stroke: #383838; stroke-width: 0.5;"/><text fill="#000000" font-family="Tahoma, sans-serif" font-size="12" font-weight="bold" lengthAdjust="spacingAndGlyphs" textLength="103" x="42.4706" y="155.4214">webpack.config</text><!--MD5=[69368988b291678c7b369865108475bb]
link actions to types--><path d="M651.156,553.987 C673.886,570.552 715.983,601.229 740.319,618.964 " fill="none" id="actions-&gt;types" style="stroke: #000000; stroke-width: 0.5;"/><polygon fill="#000000" points="744.647,622.118,739.7281,613.5855,740.6057,619.1738,735.0174,620.0515,744.647,622.118" style="stroke: #000000; stroke-width: 0.5;"/><!--MD5=[dea7fd9873eafa355d382691e642850f]
link rootReducer to types--><path d="M136.191,612.51 C144.867,615.727 153.388,620.244 160.014,626.588 C176.886,642.7412 160.616,661.1984 179.014,675.5883 C256.655,736.312 300.645,697.3536 399.014,703.5883 C532.524,712.0503 578.906,760.4149 700.014,703.5883 C723.488,692.5738 740.857,667.1233 750.461,649.8829 " fill="none" id="rootReducer-&gt;types" style="stroke: #000000; stroke-width: 0.5;"/><polygon fill="#000000" points="752.963,645.2567,745.1637,651.2709,750.5848,649.6549,752.2008,655.076,752.963,645.2567" style="stroke: #000000; stroke-width: 0.5;"/><!--MD5=[d6922e76a3ac01890a04477a15f8a1ee]
link <b>src</b> to Excel--><path d="M102.1297,548.614 C114.848,528.325 143.504,487.373 179.014,466.588 C200.831,453.818 229.293,448.45 250.184,446.199 " fill="none" id="&lt;b&gt;src&lt;/b&gt;-&gt;Excel" style="stroke: #000000; stroke-width: 1.0;"/><polygon fill="#000000" points="255.323,445.691,245.9725,442.5976,250.3473,446.1839,246.7611,450.5587,255.323,445.691" style="stroke: #000000; stroke-width: 1.0;"/><!--MD5=[50d12ff730e70b6a0d62e0b79ffbe45c]
link <b>src</b> to Formula--><path d="M107.171,551.64 C122.954,540.436 151.719,521.404 179.014,510.588 C198.709,502.785 221.748,497.468 240.695,494.019 " fill="none" id="&lt;b&gt;src&lt;/b&gt;-&gt;Formula" style="stroke: #000000; stroke-width: 1.0;"/><polygon fill="#000000" points="245.924,493.095,236.3652,490.7223,241.0003,493.9651,237.7575,498.6002,245.924,493.095" style="stroke: #000000; stroke-width: 1.0;"/><!--MD5=[227bdbdf193d7efbda047ff1ee7d8326]
link <b>src</b> to _Header--><path d="M111.949,558.373 C141.923,554.453 204.86,546.222 244.21,541.075 " fill="none" id="&lt;b&gt;src&lt;/b&gt;-&gt;_Header" style="stroke: #000000; stroke-width: 1.0;"/><polygon fill="#000000" points="249.362,540.401,239.9192,537.602,244.4042,541.0495,240.9568,545.5345,249.362,540.401" style="stroke: #000000; stroke-width: 1.0;"/><!--MD5=[ec225ae6d393e7a50504d398fdbc1cee]
link <b>src</b> to initialState--><path d="M75.9946,561.198 C55.778,562.992 24.0463,569.413 10.5144,591.588 C4.4952,601.452 4.4952,607.724 10.5144,617.588 C18.3299,630.396 32.2167,637.9487 46.4495,642.3894 " fill="none" id="&lt;b&gt;src&lt;/b&gt;-&gt;initialState" style="stroke: #000000; stroke-width: 1.0;"/><polygon fill="#000000" points="51.2813,643.7792,43.7379,637.447,46.4762,642.3969,41.5262,645.1352,51.2813,643.7792" style="stroke: #000000; stroke-width: 1.0;"/><!--MD5=[cfa385694bb39464cd2b8bed45bd6c75]
link <b>src</b> to rootReducer--><path d="M94.0144,573.64 C94.0144,577.925 94.0144,582.21 94.0144,586.495 " fill="none" id="&lt;b&gt;src&lt;/b&gt;-&gt;rootReducer" style="stroke: #000000; stroke-width: 1.0;"/><polygon fill="#000000" points="94.0144,591.526,98.0144,582.526,94.0144,586.526,90.0144,582.526,94.0144,591.526" style="stroke: #000000; stroke-width: 1.0;"/><!--MD5=[93a0dc9ce1478d3f1830f5881d3aa857]
link <b>src</b> to Table--><path d="M111.949,562.803 C143.451,566.923 211.364,575.806 250.038,580.864 " fill="none" id="&lt;b&gt;src&lt;/b&gt;-&gt;Table" style="stroke: #000000; stroke-width: 1.0;"/><polygon fill="#000000" points="255.064,581.521,246.659,576.3872,250.1063,580.8723,245.6211,584.3196,255.064,581.521" style="stroke: #000000; stroke-width: 1.0;"/><!--MD5=[6e0336f858ffe79dbdd8f7e9ab5459db]
link <b>src</b> to ToolBar--><path d="M111.704,563.487 C125.6,566.512 145.406,572.296 160.014,582.588 C171.136,590.424 168.361,598.127 179.014,606.588 C199.65,622.979 226.937,635.3516 247.715,643.2779 " fill="none" id="&lt;b&gt;src&lt;/b&gt;-&gt;ToolBar" style="stroke: #000000; stroke-width: 1.0;"/><polygon fill="#000000" points="252.58,645.0983,245.5515,638.199,247.8968,643.3468,242.7491,645.6921,252.58,645.0983" style="stroke: #000000; stroke-width: 1.0;"/><!--MD5=[25988f3a38c5e471e0980dca5effa848]
link Table to actions--><path d="M304.456,586.125 C327.069,586.19 360.366,582.47 380.014,562.588 C409.057,533.202 366.952,497.648 399.014,471.588 C445.575,433.745 476.872,453.291 534.014,471.588 C567.647,482.358 599.6,509.128 617.844,526.546 " fill="none" id="Table-&gt;actions" style="stroke: #000000; stroke-width: 0.5;"/><polygon fill="#000000" points="621.743,530.326,618.0649,521.1897,618.1529,526.8459,612.4967,526.9339,621.743,530.326" style="stroke: #000000; stroke-width: 0.5;"/><!--MD5=[4644145b4dcafc846e3988e770465d37]
link Table to resizing--><path d="M304.555,585.299 C326.605,584.683 358.943,580.413 380.014,562.588 C397.216,548.037 382.576,530.997 399.014,515.588 C407.247,507.872 418.248,502.859 428.929,499.603 " fill="none" id="Table-&gt;resizing" style="stroke: #000000; stroke-width: 0.5;"/><polygon fill="#000000" points="433.803,498.228,424.0551,496.8215,428.9908,499.5854,426.2269,504.521,433.803,498.228" style="stroke: #000000; stroke-width: 0.5;"/><!--MD5=[ccbd4ebd7a3e791f7fd6cb1a93aec28e]
link Table to table.functions--><path d="M303.124,579.967 C323.346,575.743 353.759,569.17 380.014,562.588 C394.266,559.016 409.755,554.777 423.585,550.863 " fill="none" id="Table-&gt;table.functions" style="stroke: #000000; stroke-width: 0.5;"/><polygon fill="#000000" points="428.6,549.438,418.8492,548.0518,423.7906,550.8054,421.037,555.7468,428.6,549.438" style="stroke: #000000; stroke-width: 0.5;"/><!--MD5=[19cd55a7355169a817a9c6f366839b4a]
link Table to table.template--><path d="M304.7,584.588 C329.615,584.588 369.472,584.588 403.271,584.588 " fill="none" id="Table-&gt;table.template" style="stroke: #000000; stroke-width: 0.5;"/><polygon fill="#000000" points="408.641,584.588,399.641,580.588,403.641,584.588,399.641,588.588,408.641,584.588" style="stroke: #000000; stroke-width: 0.5;"/><!--MD5=[c2105247f975d958cecb80abfd791e67]
link Table to TableSelection--><path d="M302.463,590.046 C331.317,597.22 382.72,610.002 420.115,619.3 " fill="none" id="Table-&gt;TableSelection" style="stroke: #000000; stroke-width: 0.5;"/><polygon fill="#000000" points="425.064,620.53,417.2957,614.4758,420.2119,619.323,415.3646,622.2392,425.064,620.53" style="stroke: #000000; stroke-width: 0.5;"/><!--MD5=[256b0277901c507fc6461fb74bc8d6a1]
link ToolBar to toolbar.templates--><path d="M312.739,657.943 C337.889,661.3417 373.57,666.1634 404.124,670.2924 " fill="none" id="ToolBar-&gt;toolbar.templates" style="stroke: #000000; stroke-width: 0.5;"/><polygon fill="#000000" points="409.373,671.0016,400.9902,665.8317,404.4181,670.3316,399.9182,673.7595,409.373,671.0016" style="stroke: #000000; stroke-width: 0.5;"/><!--MD5=[2830319c6cc6d8163732a125478ba88e]
link toolbar.constants to toolbar.templates--><path d="M574.958,672.1055 C560.824,671.788 545.651,671.7535 531.29,672.0019 " fill="none" id="toolbar.constants-&gt;toolbar.templates" style="stroke: #000000; stroke-width: 0.5;"/><polygon fill="#000000" points="526.04,672.1062,535.1182,675.9254,531.039,672.0062,534.9582,667.927,526.04,672.1062" style="stroke: #000000; stroke-width: 0.5;"/><!--MD5=[6bf2e5410c616aacbac4385a12af3ae7]
link toolbar.templates to toolbar.constants--><path d="M526.04,685.0704 C540.173,685.3884 555.345,685.4233 569.707,685.1753 " fill="none" id="toolbar.templates-&gt;toolbar.constants" style="stroke: #000000; stroke-width: 0.5;"/><polygon fill="#000000" points="574.958,685.0711,565.8798,681.2519,569.959,685.1711,566.0398,689.2503,574.958,685.0711" style="stroke: #000000; stroke-width: 0.5;"/><!--MD5=[6a38cdf625b775b0dae1e4121938e35c]
link <b>webpack.config</b> to clean-webpack-plugin--><path d="M115.128,136.737 C131.584,125.193 155.841,109.521 179.014,99.588 C186.353,96.443 194.164,93.603 202.058,91.058 " fill="none" id="&lt;b&gt;webpack.config&lt;/b&gt;-&gt;clean-webpack-plugin" style="stroke: #000000; stroke-width: 1.0;"/><polygon fill="#000000" points="206.98,89.511,197.1949,88.3924,202.2099,91.0096,199.5927,96.0246,206.98,89.511" style="stroke: #000000; stroke-width: 1.0;"/><!--MD5=[21017ee04eb4ebfc7ac3dfaaf563e8d3]
link <b>webpack.config</b> to copy-webpack-plugin--><path d="M151.068,143.646 C167.401,141.332 185.523,138.764 202.854,136.309 " fill="none" id="&lt;b&gt;webpack.config&lt;/b&gt;-&gt;copy-webpack-plugin" style="stroke: #000000; stroke-width: 1.0;"/><polygon fill="#000000" points="208.204,135.551,198.7319,132.8529,203.2534,136.2523,199.854,140.7738,208.204,135.551" style="stroke: #000000; stroke-width: 1.0;"/><!--MD5=[c0bba77861e9da2ff8d90ab4002b0c13]
link <b>webpack.config</b> to html-webpack-plugin--><path d="M151.068,159.53 C168.023,161.933 186.906,164.608 204.832,167.148 " fill="none" id="&lt;b&gt;webpack.config&lt;/b&gt;-&gt;html-webpack-plugin" style="stroke: #000000; stroke-width: 1.0;"/><polygon fill="#000000" points="209.86,167.861,201.5115,162.6358,204.9096,167.1583,200.3872,170.5564,209.86,167.861" style="stroke: #000000; stroke-width: 1.0;"/><!--MD5=[1e170f36608f9a28b877c1365f648a6e]
link <b>webpack.config</b> to mini-css-extract-plugin--><path d="M115.128,166.439 C131.584,177.984 155.841,193.655 179.014,203.588 C185.161,206.223 191.638,208.643 198.218,210.855 " fill="none" id="&lt;b&gt;webpack.config&lt;/b&gt;-&gt;mini-css-extract-plugin" style="stroke: #000000; stroke-width: 1.0;"/><polygon fill="#000000" points="203.267,212.506,195.9567,205.9061,198.5148,210.9515,193.4694,213.5096,203.267,212.506" style="stroke: #000000; stroke-width: 1.0;"/><!--MD5=[95e2b5096f6e1887a20b177430e4daef]
link <b>createStore</b> to <b>dom</b>--><!--MD5=[ff60605a0ea56c524dea8b3e71aca294]
link <b>dom</b> to _DOMListener--><!--MD5=[185c9a028e1b885121f7e4f417baebc1]
link <b>createStore</b> to <b>ExcelComponent</b>--><!--MD5=[b955f993770b1f6d77f8041da929db00]
link <b>ExcelComponent</b> to <b>ExcelStateComponent</b>--><!--MD5=[b975e505bfe5d934f342ae60308a79be]
link <b>ExcelStateComponent</b> to <b>modul</b>--><!--MD5=[f2a0ce53f0be7107f4615edb78a67634]
link <b>ExcelComponent</b> to <b>Observer</b>--><!--MD5=[2eef9777928727333df442a4c24479cf]
link <b>Observer</b> to <b>StoreSubscriber</b>--><!--MD5=[a277f3a2e94494fa113afed3c205d6db]
link <b>StoreSubscriber</b> to <b>utils</b>--><script type="text/plantuml"><![CDATA[MD5=[a0a9f101d75130762d7b8616d7be1b5e]
@startuml

scale max 1920 width
left to right direction

skinparam nodesep 18
skinparam ranksep 35
skinparam monochrome true
skinparam shadowing false
skinparam defaultFontName Tahoma
skinparam defaultFontSize 12
skinparam roundCorner 6
skinparam dpi 150
skinparam arrowColor black
skinparam arrowThickness 0.5
skinparam packageTitleAlignment left

skinparam usecase {
  borderThickness 0.5
}

skinparam rectangle {
  borderThickness 0.5
}

skinparam component {
  borderThickness 1
}


(actions)
(<b>createStore</b>)
(<b>dom</b>)
rectangle "<b>DOMListener</b>" as _DOMListener
(Excel)
(<b>ExcelComponent</b>)
(<b>ExcelStateComponent</b>)
(Formula)
rectangle "Header" as _Header
(initialState)
(<b>modul</b>)
(<b>Observer</b>)
(resizing)
(rootReducer)
(<b>src</b>)
(<b>StoreSubscriber</b>)
(Table)
(table.functions)
(table.template)
(TableSelection)
(ToolBar)
(toolbar.constants)
(toolbar.templates)
(types)
(<b>utils</b>)
(<b>webpack.config</b>)

package "Dependencies" {
  [clean-webpack-plugin]
  [copy-webpack-plugin]
  [html-webpack-plugin]
  [mini-css-extract-plugin]
}

(actions) --> (types)
(rootReducer) --> (types)
(<b>src</b>) --[thickness=1]> (Excel)
(<b>src</b>) --[thickness=1]> (Formula)
(<b>src</b>) --[thickness=1]> _Header
(<b>src</b>) -[thickness=1]> (initialState)
(<b>src</b>) -[thickness=1]> (rootReducer)
(<b>src</b>) --[thickness=1]> (Table)
(<b>src</b>) --[thickness=1]> (ToolBar)
(Table) ---> (actions)
(Table) --> (resizing)
(Table) --> (table.functions)
(Table) --> (table.template)
(Table) --> (TableSelection)
(ToolBar) --> (toolbar.templates)
(toolbar.constants) --> (toolbar.templates)
(toolbar.templates) --> (toolbar.constants)
(<b>webpack.config</b>) --[thickness=1]> [clean-webpack-plugin]
(<b>webpack.config</b>) --[thickness=1]> [copy-webpack-plugin]
(<b>webpack.config</b>) --[thickness=1]> [html-webpack-plugin]
(<b>webpack.config</b>) --[thickness=1]> [mini-css-extract-plugin]

@enduml


' View and edit on https://arkit.pro
]]></script></g></svg>